<?xml version="1.0" encoding="UTF-8"?>
<svg xmlns="http://www.w3.org/2000/svg" xmlns:xlink="http://www.w3.org/1999/xlink" width="25px" height="25px" viewBox="0 0 25 25" version="1.1">
<g id="surface1">
<path style=" stroke:none;fill-rule:nonzero;fill:rgb(100%,100%,100%);fill-opacity:1;" d="M 10.9375 3.125 C 10.417969 3.125 10 3.542969 10 4.0625 C 10 4.582031 10.417969 5 10.9375 5 L 13.148438 5 L 14.027344 6.902344 L 10.3125 9.6875 C 9.007812 8.707031 7.382812 8.125 5.625 8.125 L 3.4375 8.125 C 2.917969 8.125 2.5 8.542969 2.5 9.0625 C 2.5 9.582031 2.917969 10 3.4375 10 L 5.625 10 C 8.691406 10 11.21875 12.328125 11.53125 15.3125 L 10.539062 15.3125 C 10.101562 13 8.066406 11.25 5.625 11.25 C 2.863281 11.25 0.625 13.488281 0.625 16.25 C 0.625 19.011719 2.863281 21.25 5.625 21.25 C 8.066406 21.25 10.097656 19.5 10.539062 17.1875 L 12.5 17.1875 C 13.019531 17.1875 13.4375 16.769531 13.4375 16.25 L 13.4375 15.371094 C 13.4375 13.609375 14.441406 12.035156 15.996094 11.164062 L 16.46875 12.183594 C 15.203125 13.089844 14.378906 14.574219 14.378906 16.25 C 14.378906 19.011719 16.617188 21.25 19.378906 21.25 C 22.140625 21.25 24.378906 19.011719 24.378906 16.25 C 24.378906 13.488281 22.140625 11.25 19.378906 11.25 C 18.960938 11.25 18.558594 11.300781 18.171875 11.398438 L 16.945312 8.75 L 19.0625 8.75 C 19.582031 8.75 20 8.332031 20 7.8125 L 20 5.9375 C 20 5.417969 19.582031 5 19.0625 5 L 16.980469 5 C 16.710938 5 16.445312 5.085938 16.230469 5.25 L 15.5625 5.75 L 14.601562 3.667969 C 14.449219 3.335938 14.117188 3.125 13.75 3.125 Z M 17.414062 14.234375 L 18.523438 16.640625 C 18.742188 17.109375 19.296875 17.316406 19.765625 17.097656 C 20.234375 16.878906 20.441406 16.324219 20.222656 15.855469 L 19.109375 13.449219 C 19.195312 13.441406 19.28125 13.4375 19.371094 13.4375 C 20.925781 13.4375 22.183594 14.695312 22.183594 16.25 C 22.183594 17.804688 20.925781 19.0625 19.371094 19.0625 C 17.816406 19.0625 16.558594 17.804688 16.558594 16.25 C 16.558594 15.460938 16.882812 14.746094 17.410156 14.234375 Z M 5.625 19.0625 C 4.070312 19.0625 2.8125 17.804688 2.8125 16.25 C 2.8125 14.695312 4.070312 13.4375 5.625 13.4375 C 6.847656 13.4375 7.890625 14.21875 8.277344 15.3125 L 5.625 15.3125 C 5.105469 15.3125 4.6875 15.730469 4.6875 16.25 C 4.6875 16.769531 5.105469 17.1875 5.625 17.1875 L 8.277344 17.1875 C 7.890625 18.28125 6.847656 19.0625 5.625 19.0625 Z M 5.625 19.0625 "/>
</g>
</svg>
